<svg width="18" height="18" viewBox="0 0 18 18" fill="none" xmlns="http://www.w3.org/2000/svg">
<path d="M16.875 1.68394L12.3711 1.68396V0.562632C12.3711 0.251778 12.1193 0 11.8086 0C11.4978 0 11.2461 0.251778 11.2461 0.562632V1.68368H6.74606V0.562632C6.74606 0.251778 6.49434 0 6.18356 0C5.87278 0 5.62106 0.251778 5.62106 0.562632V1.68368H1.125C0.503719 1.68368 0 2.18751 0 2.80894V16.8747C0 17.4961 0.503719 18 1.125 18H16.875C17.4963 18 18 17.4961 18 16.8747V2.80894C18 2.18778 17.4963 1.68394 16.875 1.68394ZM16.875 16.8747H1.125V2.80894H5.62106V3.37579C5.62106 3.68663 5.87278 3.93842 6.18356 3.93842C6.49434 3.93842 6.74606 3.68663 6.74606 3.37579V2.80922H11.2461V3.37607C11.2461 3.68693 11.4978 3.9387 11.8086 3.9387C12.1193 3.9387 12.3711 3.68693 12.3711 3.37607V2.80922H16.875V16.8747ZM12.9375 8.99815H14.0625C14.373 8.99815 14.625 8.74609 14.625 8.43552V7.31026C14.625 6.99969 14.373 6.74763 14.0625 6.74763H12.9375C12.627 6.74763 12.375 6.99969 12.375 7.31026V8.43552C12.375 8.74609 12.627 8.99815 12.9375 8.99815ZM12.9375 13.4989H14.0625C14.373 13.4989 14.625 13.2471 14.625 12.9363V11.811C14.625 11.5005 14.373 11.2484 14.0625 11.2484H12.9375C12.627 11.2484 12.375 11.5005 12.375 11.811V12.9363C12.375 13.2474 12.627 13.4989 12.9375 13.4989ZM9.5625 11.2484H8.4375C8.127 11.2484 7.875 11.5005 7.875 11.811V12.9363C7.875 13.2471 8.127 13.4989 8.4375 13.4989H9.5625C9.873 13.4989 10.125 13.2471 10.125 12.9363V11.811C10.125 11.5007 9.873 11.2484 9.5625 11.2484ZM9.5625 6.74763H8.4375C8.127 6.74763 7.875 6.99969 7.875 7.31026V8.43552C7.875 8.74609 8.127 8.99815 8.4375 8.99815H9.5625C9.873 8.99815 10.125 8.74609 10.125 8.43552V7.31026C10.125 6.9994 9.873 6.74763 9.5625 6.74763ZM5.0625 6.74763H3.9375C3.627 6.74763 3.375 6.99969 3.375 7.31026V8.43552C3.375 8.74609 3.627 8.99815 3.9375 8.99815H5.0625C5.373 8.99815 5.625 8.74609 5.625 8.43552V7.31026C5.625 6.9994 5.373 6.74763 5.0625 6.74763ZM5.0625 11.2484H3.9375C3.627 11.2484 3.375 11.5005 3.375 11.811V12.9363C3.375 13.2471 3.627 13.4989 3.9375 13.4989H5.0625C5.373 13.4989 5.625 13.2471 5.625 12.9363V11.811C5.625 11.5007 5.373 11.2484 5.0625 11.2484Z" fill="#A1A3AB"/>
</svg>
